<?xml version="1.0" encoding="UTF-8" standalone="no"?>
<!--
  Icon: health-and-beauty
  Set: Material Symbols Light
  Author: Google (https://github.com/google/material-design-icons)
  License: Apache 2.0 (https://github.com/google/material-design-icons/blob/master/LICENSE)
  Source: https://iconify.design
-->

<svg
   viewBox="0 0 128 128"
   width="128"
   height="128"
   version="1.1"
   id="svg1"
   sodipodi:docname="vessel_draft.svg"
   inkscape:version="1.4.4 (dcaf3e7d9e, 2026-05-05)"
   xmlns:inkscape="http://www.inkscape.org/namespaces/inkscape"
   xmlns:sodipodi="http://sodipodi.sourceforge.net/DTD/sodipodi-0.dtd"
   xmlns="http://www.w3.org/2000/svg"
   xmlns:svg="http://www.w3.org/2000/svg"
   xmlns:rdf="http://www.w3.org/1999/02/22-rdf-syntax-ns#"
   xmlns:cc="http://creativecommons.org/ns#"
   xmlns:dc="http://purl.org/dc/elements/1.1/">
  <defs
     id="defs1" />
  <sodipodi:namedview
     id="namedview1"
     pagecolor="#ffffff"
     bordercolor="#000000"
     borderopacity="0.25"
     inkscape:showpageshadow="2"
     inkscape:pageopacity="0.0"
     inkscape:pagecheckerboard="0"
     inkscape:deskcolor="#d1d1d1"
     inkscape:zoom="2.9425954"
     inkscape:cx="25.317786"
     inkscape:cy="53.864014"
     inkscape:window-width="1920"
     inkscape:window-height="1008"
     inkscape:window-x="0"
     inkscape:window-y="0"
     inkscape:window-maximized="1"
     inkscape:current-layer="svg1" />
  <title
     id="title1">Ship Draft Measurement Icon</title>
  <metadata
     id="metadata1">
    <rdf:RDF>
      <cc:Work
         rdf:about="">
        <dc:title>Ship Draft Measurement Icon</dc:title>
        <dc:description>Minimalist icon depicting a ship's hull and a draft scale, representing water depth or vessel draft measurement. Ideal for maritime, shipping, and nautical-themed projects.</dc:description>
        <dc:creator>
          <cc:Agent>
            <dc:title>Google</dc:title>
          </cc:Agent>
        </dc:creator>
        <dc:source>https://github.com/google/material-design-icons</dc:source>
        <dc:rights>
          <cc:Agent>
            <dc:title>Google</dc:title>
          </cc:Agent>
        </dc:rights>
        <cc:license
           rdf:resource="https://github.com/google/material-design-icons/blob/master/LICENSE" />
        <dc:format>image/svg+xml</dc:format>
        <dc:type
           rdf:resource="http://purl.org/dc/dcmitype/StillImage" />
        <dc:subject>
          <rdf:Bag>
            <rdf:li>ship-draft</rdf:li>
            <rdf:li>draft-measurement</rdf:li>
            <rdf:li>vessel-draft</rdf:li>
            <rdf:li>maritime-icon</rdf:li>
            <rdf:li>nautical-icon</rdf:li>
            <rdf:li>ship-hull</rdf:li>
            <rdf:li>water-depth</rdf:li>
            <rdf:li>draft-scale</rdf:li>
            <rdf:li>marine-navigation</rdf:li>
            <rdf:li>shipping-industry</rdf:li>
            <rdf:li>boat-measurement</rdf:li>
            <rdf:li>vessel-icon</rdf:li>
            <rdf:li>nautical-tools</rdf:li>
            <rdf:li>maritime-safety</rdf:li>
            <rdf:li>ship-design</rdf:li>
          </rdf:Bag>
        </dc:subject>
      </cc:Work>
      <cc:License
         rdf:about="https://github.com/google/material-design-icons/blob/master/LICENSE">
        <dc:title>Apache 2.0 (Apache-2.0)</dc:title>
      </cc:License>
    </rdf:RDF>
  </metadata>
  <path
     fill="currentColor"
     d="m 93.620023,120.44915 q -1.389815,0 -2.329408,-0.93959 -0.939593,-0.9396 -0.933068,-2.32941 0.0065,-1.38982 0.933068,-2.32288 0.926544,-0.93307 2.329408,-0.93307 H 116.45736 V 95.850079 H 93.620023 q -1.389815,0 -2.329408,-0.933068 -0.933068,-0.939593 -0.933068,-2.329408 0,-1.389815 0.933068,-2.322884 0.933069,-0.933068 2.329408,-0.933068 H 116.45736 V 71.257532 H 93.620023 q -1.389815,0 -2.329408,-0.933069 -0.933068,-0.939593 -0.933068,-2.329408 0,-1.389815 0.933068,-2.322883 0.933069,-0.933068 2.329408,-0.933068 H 116.45736 V 46.664984 H 93.620023 q -1.389815,0 -2.329408,-0.939593 -0.933068,-0.933068 -0.933068,-2.322883 0,-1.389815 0.933068,-2.322883 0.933069,-0.933068 2.329408,-0.939593 H 116.45736 V 22.072437 H 93.620023 q -1.389815,0 -2.329408,-0.939593 -0.933068,-0.939593 -0.933068,-2.322883 0,-1.389815 0.933068,-2.329408 0.933069,-0.939594 2.329408,-0.933069 h 23.835657 q 4.50221,0 7.52327,3.021053 Q 128,21.589591 128,26.091808 v 83.819542 q 0,4.50222 -3.02105,7.52327 -3.02106,3.02106 -7.52327,3.01453 z m -71.030636,0 L 0,57.959678 31.124025,39.389662 V 3 h 13.049906 v 36.389662 l 31.1175,18.570016 -22.582862,62.489472 z"
     id="path1"
     style="stroke-width:6.52495" />
</svg>
